# xmcd
#
# Track frame offsets: 
#        150
#        20113
#        40637
#        59409
#        89397
#        105646
#        125999
#        140421
#        161181
#        181817
#        198434
#        212423
#
# Disc length: 3009 seconds
#
# Revision: 0
# Processed by: cddbd v1.5.2PL0 Copyright (c) Steve Scherf et al.
# Submitted via: ExactAudioCopyFreeDBPlugin 1.0
#
DISCID=ac0bbf0c
DTITLE=Jimmy Reiter - Told You So
DYEAR=2015
DGENRE=Blues
TTITLE0=Instinctively Wrong
TTITLE1=Woman Don't Lie
TTITLE2=Waiting For My Luck To Change
TTITLE3=I'm Givin' In
TTITLE4=Out Of My Mind
TTITLE5=Can't Stop Thinking About You
TTITLE6=The Only Thing That's Wrong With You (Is Him)
TTITLE7=Hard Times
TTITLE8=Take It Or Leave It
TTITLE9=Too Many Cooks
TTITLE10=Just A Little Too Much
TTITLE11=Jim-Pli-Fied
EXTD=
EXTT0=
EXTT1=
EXTT2=
EXTT3=
EXTT4=
EXTT5=
EXTT6=
EXTT7=
EXTT8=
EXTT9=
EXTT10=
EXTT11=
PLAYORDER=
